<svg width="161" height="36" viewBox="0 0 161 36" fill="none" xmlns="http://www.w3.org/2000/svg">
<path d="M18.5 0.666667C20.75 0.666667 22.5972 1.02778 24.0417 1.75C25.5139 2.44444 26.6667 3.41666 27.5 4.66667C28.3333 5.91667 28.9028 7.38889 29.2083 9.08333C29.5417 10.7778 29.7083 12.6111 29.7083 14.5833V21.0833C29.7083 23.0833 29.5417 24.9306 29.2083 26.625C28.9028 28.3194 28.3333 29.7917 27.5 31.0417C26.6667 32.2639 25.5139 33.2361 24.0417 33.9583C22.5972 34.6528 20.75 35 18.5 35H4.29167C3.90278 35 3.48611 34.9306 3.04167 34.7917C2.625 34.625 2.23611 34.4028 1.875 34.125C1.54167 33.8472 1.25 33.5278 1 33.1667C0.777778 32.7778 0.666667 32.3611 0.666667 31.9167V3.5C0.666667 2.63889 0.986111 1.95833 1.625 1.45833C2.29167 0.930555 3.06944 0.666667 3.95833 0.666667H18.5ZM18.375 28.8333C19.5694 28.8333 20.5 28.6528 21.1667 28.2917C21.8611 27.9306 22.375 27.4306 22.7083 26.7917C23.0694 26.125 23.2917 25.3611 23.375 24.5C23.4861 23.6389 23.5417 22.7083 23.5417 21.7083V13.9583C23.5417 12.9583 23.4861 12.0278 23.375 11.1667C23.2917 10.3056 23.0694 9.55555 22.7083 8.91666C22.375 8.27778 21.8611 7.77778 21.1667 7.41667C20.5 7.02778 19.5694 6.83333 18.375 6.83333H6.83333V28.8333H18.375ZM57.3158 0.666667C57.4824 0.666667 57.7185 0.75 58.0241 0.916666C58.3296 1.08333 58.4824 1.48611 58.4824 2.125V5.375C58.4824 6.01389 58.3296 6.41667 58.0241 6.58333C57.7185 6.75 57.4824 6.83333 57.3158 6.83333H33.3574C33.1908 6.83333 32.9546 6.76389 32.6491 6.625C32.3713 6.45833 32.2324 6.05556 32.2324 5.41667V2.16667C32.2324 1.5 32.3713 1.08333 32.6491 0.916666C32.9546 0.75 33.1908 0.666667 33.3574 0.666667H57.3158ZM38.4824 25.0417C38.4824 26.4583 38.8435 27.4444 39.5658 28C40.3158 28.5556 41.3296 28.8333 42.6074 28.8333H57.2741C57.7185 28.8333 58.0241 28.9722 58.1908 29.25C58.3852 29.5278 58.4824 29.8611 58.4824 30.25V33.5833C58.4824 33.9722 58.3852 34.3056 58.1908 34.5833C58.0241 34.8611 57.7185 35 57.2741 35H42.4824C40.4824 35 38.8158 34.7222 37.4824 34.1667C36.1769 33.5833 35.1352 32.7639 34.3574 31.7083C33.5796 30.6528 33.0241 29.3889 32.6908 27.9167C32.3852 26.4167 32.2324 24.75 32.2324 22.9167V17.4167C32.2324 17.0833 32.288 16.75 32.3991 16.4167C32.5102 16.0556 32.6908 15.75 32.9408 15.5C33.2185 15.2222 33.5658 15 33.9824 14.8333C34.4269 14.6667 34.9685 14.5833 35.6074 14.5833H57.1074C57.5241 14.5833 57.8158 14.7222 57.9824 15C58.1769 15.2778 58.2741 15.6111 58.2741 16V19.2917C58.2741 19.6806 58.1769 20.0278 57.9824 20.3333C57.8158 20.6111 57.5241 20.75 57.1074 20.75H38.4824V25.0417ZM96.4974 0.208334C96.7474 0.208334 96.9835 0.305556 97.2057 0.5C97.4557 0.666667 97.5391 0.861111 97.4557 1.08333L85.7057 30.6667C85.4557 31.2778 85.1641 31.8472 84.8307 32.375C84.5252 32.9028 84.1641 33.375 83.7474 33.7917C83.3307 34.1806 82.8446 34.4861 82.2891 34.7083C81.7335 34.9306 81.0946 35.0417 80.3724 35.0417C79.2057 35.0417 78.1918 34.6806 77.3307 33.9583C76.4974 33.2361 75.8585 32.3472 75.4141 31.2917L63.2891 1.08333C63.178 0.833333 63.2335 0.625 63.4557 0.458333C63.678 0.291667 63.928 0.208334 64.2057 0.208334H68.7057C69.0668 0.208334 69.3168 0.277778 69.4557 0.416667C69.5946 0.555556 69.7335 0.777778 69.8724 1.08333L80.2891 26.9583V27L80.4557 26.9583L90.7057 1.08333C90.8168 0.833333 90.9696 0.625 91.1641 0.458333C91.3863 0.291667 91.6363 0.208334 91.9141 0.208334H96.4974ZM125.822 0.666667C125.988 0.666667 126.224 0.75 126.53 0.916666C126.836 1.08333 126.988 1.48611 126.988 2.125V5.375C126.988 6.01389 126.836 6.41667 126.53 6.58333C126.224 6.75 125.988 6.83333 125.822 6.83333H101.863C101.697 6.83333 101.461 6.76389 101.155 6.625C100.877 6.45833 100.738 6.05556 100.738 5.41667V2.16667C100.738 1.5 100.877 1.08333 101.155 0.916666C101.461 0.75 101.697 0.666667 101.863 0.666667H125.822ZM106.988 25.0417C106.988 26.4583 107.349 27.4444 108.072 28C108.822 28.5556 109.836 28.8333 111.113 28.8333H125.78C126.224 28.8333 126.53 28.9722 126.697 29.25C126.891 29.5278 126.988 29.8611 126.988 30.25V33.5833C126.988 33.9722 126.891 34.3056 126.697 34.5833C126.53 34.8611 126.224 35 125.78 35H110.988C108.988 35 107.322 34.7222 105.988 34.1667C104.683 33.5833 103.641 32.7639 102.863 31.7083C102.086 30.6528 101.53 29.3889 101.197 27.9167C100.891 26.4167 100.738 24.75 100.738 22.9167V17.4167C100.738 17.0833 100.794 16.75 100.905 16.4167C101.016 16.0556 101.197 15.75 101.447 15.5C101.724 15.2222 102.072 15 102.488 14.8333C102.933 14.6667 103.474 14.5833 104.113 14.5833H125.613C126.03 14.5833 126.322 14.7222 126.488 15C126.683 15.2778 126.78 15.6111 126.78 16V19.2917C126.78 19.6806 126.683 20.0278 126.488 20.3333C126.322 20.6111 126.03 20.75 125.613 20.75H106.988V25.0417ZM158.975 0.666667C159.392 0.666667 159.684 0.819444 159.85 1.125C160.045 1.40278 160.142 1.73611 160.142 2.125V29.625C160.142 30.2639 160.1 30.9028 160.017 31.5417C159.934 32.1806 159.725 32.7639 159.392 33.2917C159.086 33.7917 158.614 34.2083 157.975 34.5417C157.336 34.8472 156.447 35 155.309 35C154.559 35 153.892 34.9861 153.309 34.9583C152.725 34.9306 152.184 34.8194 151.684 34.625C151.211 34.4306 150.767 34.125 150.35 33.7083C149.934 33.2917 149.517 32.7083 149.1 31.9583L135.767 8.45833H135.559V33.5417C135.559 33.9306 135.461 34.2778 135.267 34.5833C135.1 34.8611 134.809 35 134.392 35H130.684C130.267 35 129.961 34.8611 129.767 34.5833C129.572 34.2778 129.475 33.9306 129.475 33.5417V6.04166C129.475 5.375 129.503 4.72222 129.559 4.08333C129.642 3.44444 129.809 2.875 130.059 2.375C130.309 1.875 130.67 1.47222 131.142 1.16667C131.614 0.833333 132.253 0.666667 133.059 0.666667H136.184C136.878 0.666667 137.434 0.722222 137.85 0.833333C138.295 0.944444 138.656 1.125 138.934 1.375C139.239 1.59722 139.517 1.90278 139.767 2.29167C140.017 2.68055 140.295 3.15278 140.6 3.70833L153.892 27.2083H154.1V2.125C154.1 1.73611 154.184 1.40278 154.35 1.125C154.517 0.819444 154.822 0.666667 155.267 0.666667H158.975Z" fill="#2563EB"/>
</svg>
